{"title":"Orphan.2009.SWESUB.DVDRip.XviD.AC3.(5.1).-Zen_Bud","uid":5548815,"size":1471559388,"categoryP":"video","categoryS":"movies","magnet":"?xt=urn:btih:bb330b91899076dcea18dfb4c63a0a4d59d42e3e&amp;dn=Orphan.2009.SWESUB.DVDRip.XviD.AC3.%285.1%29.-Zen_Bud&amp;tr=udp%3A%2F%2Ftracker.openbittorrent.com%3A80&amp;tr=udp%3A%2F%2Fopen.demonii.com%3A1337&amp;tr=udp%3A%2F%2Ftracker.coppersurfer.tk%3A6969&amp;tr=udp%3A%2F%2Fexodus.desync.com%3A6969","seeders":2,"leechers":0,"uploader":"Zen_Bud","files":-1,"time":1273473763,"description":"General\nComplete name                    : Orphan.avi\nFormat                           : AVI\nFile size                        : 1.37 GiB\nDuration                         : 1h 57mn\nOverall bit rate                 : 1 664 Kbps\n\nVideo\nID                               : 0\nFormat                           : MPEG-4 Visual\nCodec ID/Hint                    : XviD\nDuration                         : 1h 57mn\nBit rate                         : 1 270 Kbps\nWidth                            : 720 pixels\nHeight                           : 576 pixels\nDisplay aspect ratio             : 16:9\nResolution                       : 8 bits\nColorimetry                      : 4:2:0\nScan type                        : Progressive\nBits/(Pixel*Frame)               : 0.122\nStream size                      : 1.05 GiB (76%)\nWriting library                  : XviD 1.1.2 (UTC 2006-11-01)\n\nAudio\nID                               : 1\nFormat                           : AC-3\nDuration                         : 1h 57mn\nBit rate mode                    : Constant\nBit rate                         : 384 Kbps\nChannel(s)                       : 6 channels\nChannel positions                : Front: L C R, Side: L R, LFE\nSampling rate                    : 48.0 KHz\nStream size                      : 324 MiB (23%)\n\n\n","torrent":{"xt":"urn:btih:bb330b91899076dcea18dfb4c63a0a4d59d42e3e","amp;dn":"Orphan.2009.SWESUB.DVDRip.XviD.AC3.%285.1%29.-Zen_Bud","amp;tr":["udp%3A%2F%2Ftracker.openbittorrent.com%3A80","udp%3A%2F%2Fopen.demonii.com%3A1337","udp%3A%2F%2Ftracker.coppersurfer.tk%3A6969","udp%3A%2F%2Fexodus.desync.com%3A6969"],"infoHash":"bb330b91899076dcea18dfb4c63a0a4d59d42e3e","infoHashBuffer":{"type":"Buffer","data":[187,51,11,145,137,144,118,220,234,24,223,180,198,58,10,77,89,212,46,62]},"announce":[],"urlList":[]}}